<?xml version="1.0" encoding="UTF-8" standalone="no"?>
<svg xmlns="http://www.w3.org/2000/svg" version="1.1" width="579" height="301">
<rect width="100%" height="100%" fill="white"/>
<path d="M 0,0 L 0,300 L 45,300 L 45,299 L 46,298 L 47,299 L 47,300 L 60,300 L 60,299 L 61,298 L 67,298 L 68,299 L 67,300 L 65,300 L 82,300 L 82,299 L 83,298 L 84,299 L 84,300 L 134,300 L 135,299 L 134,298 L 135,297 L 138,297 L 139,298 L 141,298 L 142,299 L 141,300 L 138,300 L 141,300 L 142,299 L 143,300 L 154,300 L 154,297 L 155,296 L 156,297 L 156,300 L 179,300 L 179,299 L 180,298 L 181,299 L 181,300 L 200,300 L 201,299 L 202,300 L 236,300 L 237,299 L 238,300 L 290,300 L 291,299 L 292,299 L 293,300 L 312,300 L 312,299 L 313,298 L 314,299 L 314,300 L 324,300 L 324,287 L 325,286 L 326,287 L 326,300 L 376,300 L 368,300 L 367,299 L 368,298 L 377,298 L 378,299 L 378,300 L 470,300 L 469,299 L 469,298 L 470,297 L 473,297 L 474,298 L 475,298 L 476,299 L 475,300 L 474,300 L 475,300 L 476,299 L 477,300 L 578,300 L 578,0 Z" fill="black" stroke="none"/>
</svg>